<svg width="86" height="86" viewBox="0 0 86 86" fill="none" xmlns="http://www.w3.org/2000/svg">
<g clip-path="url(#clip0_318_31)">
<path d="M72.478 55.9726L84.0323 44.7335C84.4153 44.3609 84.6347 43.8514 84.6421 43.3171C84.6494 42.7828 84.4443 42.2674 84.0717 41.8843L72.8326 30.3301C72.5548 30.0436 72.1983 29.846 71.8081 29.7623C71.418 29.6787 71.0118 29.7127 70.641 29.8602C70.2702 30.0077 69.9516 30.262 69.7255 30.5908C69.4994 30.9196 69.3761 31.3081 69.3711 31.7071L69.2442 41.0895L2.87856 40.1691L2.82278 44.2035L69.1885 45.1182L69.0559 54.5005C69.0499 54.8994 69.1625 55.2912 69.3794 55.6261C69.5963 55.9611 69.9078 56.224 70.2743 56.3817C70.6409 56.5394 71.046 56.5847 71.4383 56.5119C71.8307 56.439 72.1925 56.2514 72.478 55.9726Z" fill="white"/>
</g>
<defs>
<clipPath id="clip0_318_31">
<rect width="60.4458" height="60.4458" fill="white" transform="translate(85.4766 43.3286) rotate(135.792)"/>
</clipPath>
</defs>
</svg>
