<svg width="75" height="75" viewBox="0 0 75 75" fill="#262626" xmlns="http://www.w3.org/2000/svg">
<g clip-path="url(#clip0_318_25)">
<path d="M63.6378 39.7096C64.2236 39.1236 64.5527 38.3289 64.5527 37.5002C64.5527 36.6716 64.2236 35.8769 63.6378 35.2908L45.9597 17.6127C45.6714 17.3142 45.3266 17.0762 44.9453 16.9124C44.564 16.7486 44.154 16.6624 43.739 16.6588C43.3241 16.6552 42.9126 16.7343 42.5285 16.8914C42.1445 17.0485 41.7956 17.2806 41.5022 17.574C41.2088 17.8674 40.9767 18.2163 40.8196 18.6004C40.6625 18.9844 40.5834 19.3959 40.587 19.8108C40.5906 20.2258 40.6768 20.6358 40.8406 21.0171C41.0044 21.3984 41.2424 21.7432 41.5409 22.0315L53.8847 34.3752H12.5003C11.6715 34.3752 10.8766 34.7045 10.2906 35.2905C9.70452 35.8766 9.37528 36.6714 9.37528 37.5002C9.37528 38.329 9.70452 39.1239 10.2906 39.7099C10.8766 40.296 11.6715 40.6252 12.5003 40.6252H53.8847L41.5409 52.969C40.9717 53.5584 40.6567 54.3477 40.6638 55.1671C40.6709 55.9865 40.9996 56.7702 41.579 57.3497C42.1584 57.9291 42.9422 58.2577 43.7615 58.2648C44.5809 58.2719 45.3703 57.957 45.9597 57.3877L63.6378 39.7096Z" fill="#262626"/>
</g>
<defs>
<clipPath id="clip0_318_25">
<rect width="75" height="75" fill="white" transform="matrix(0 1 -1 0 75 0)"/>
</clipPath>
</defs>
</svg>
